Coordinates
version=1
nRows=5
nColumns=42
inDegrees=yes

Units are S.I. units (second, meters, Newtons, ...)
If the header above contains a line with 'inDegrees', this indicates whether rotational values are in degrees (yes) or radians (no).

endheader
time	pelvis_tilt	pelvis_list	pelvis_rotation	pelvis_tx	pelvis_ty	pelvis_tz	hip_flexion_r	hip_adduction_r	hip_rotation_r	knee_angle_r	knee_adduction_r	knee_angle_r_beta	ankle_angle_r	subtalar_angle_r	mtp_angle_r	hip_flexion_l	hip_adduction_l	hip_rotation_l	knee_angle_l	knee_adduction_l	knee_angle_l_beta	ankle_angle_l	subtalar_angle_l	mtp_angle_l	lumbar_extension	lumbar_bending	lumbar_rotation	arm_flex_r	arm_add_r	arm_rot_r	elbow_flex_r	pro_sup_r	wrist_flex_r	wrist_dev_r	arm_flex_l	arm_add_l	arm_rot_l	elbow_flex_l	pro_sup_l	wrist_flex_l	wrist_dev_l
      0.00000000	     10.19157637	     -0.33957858	     -6.85952197	     -1.03949847	      0.84713148	     -0.33920377	     11.83704855	     -4.11546592	    -14.87582135	     52.61723017	     -8.46130504	      0.91834391	     10.89114562	     -3.04512711	     -9.52932146	    -11.95559923	      2.03276129	     -7.57191942	      8.45553772	      6.17603218	      0.14757697	     15.42491457	     -6.16626829	     -9.52932146	    -21.11880334	     -2.15300058	      5.56423480	      0.68659270	    -14.65039882	     -8.28541299	     34.89953998	     90.00000001	      0.00000000	      0.00000000	      0.94149062	     -7.51424100	    -31.87637068	     29.95440995	     90.00000001	      0.00000000	      0.00000000
      0.01000000	     10.09038839	     -0.74906690	     -6.35661336	     -1.02510318	      0.84711334	     -0.33995494	     12.80638244	     -3.33975886	    -15.34641256	     49.38569647	     -7.64914341	      0.86194301	     11.20575432	     -2.98647220	     -9.37501739	    -13.64446486	      1.63864895	     -7.66608056	      7.23190026	      6.26970865	      0.12622047	     15.88416195	     -5.12066990	     -9.37501739	    -20.98634946	     -1.36636471	      4.62727939	      0.65412522	    -14.58089387	     -8.32972105	     34.66402039	     90.00000001	      0.00000000	      0.00000000	      0.74946583	     -7.73415505	    -27.99438997	     32.05678170	     90.00000001	      0.00000000	      0.00000000
      0.02000000	      9.98439990	     -1.01031287	     -5.85390709	     -1.01060408	      0.84653834	     -0.34075412	     13.63252337	     -2.80901306	    -15.57504658	     45.94153690	     -6.52231045	      0.80183108	     11.36141669	     -3.31058302	     -9.24470859	    -15.22861370	      1.40187376	     -7.82305420	      6.17170541	      6.32752461	      0.10771658	     16.41338318	     -4.00468611	     -9.24470859	    -20.81186415	     -0.74930436	      3.59919228	      0.69885878	    -14.47649248	     -8.44484672	     34.30526661	     90.00000001	      0.00000000	      0.00000000	      0.52631804	     -8.04434886	    -24.62800293	     34.48855546	     90.00000001	      0.00000000	      0.00000000
      0.03000000	      9.53838330	     -0.87175183	     -5.41958245	     -0.99623621	      0.84491561	     -0.34187064	     14.89418482	     -2.82920208	    -15.75850649	     42.54793543	     -5.30771041	      0.74260156	     11.68752872	     -3.36977519	     -9.19986365	    -16.16839170	      1.72250605	     -7.99809738	      5.48610976	      6.08231135	      0.09575068	     16.86118573	     -3.04269164	     -9.19986365	    -20.21809276	     -0.52595196	      2.48748229	      0.72363174	    -14.41126495	     -8.48867914	     33.97165689	     90.00000001	      0.00000000	      0.00000000	      0.58405972	     -8.11223648	    -23.41301121	     36.78366098	     90.00000001	      0.00000000	      0.00000000
      0.04000000	      9.86314802	     -1.18361141	     -4.81918683	     -0.98118554	      0.84391755	     -0.34235587	     14.72802142	     -2.37752727	    -16.20814469	     38.41231397	     -4.00918716	      0.67042135	     11.57910420	     -3.86717519	     -9.10489096	    -18.24990162	      1.27701211	     -8.36256501	      4.52317977	      6.39122403	      0.07894438	     17.55017603	     -1.61813787	     -9.10489096	    -20.45677428	      0.06941921	      1.45924327	      0.73438626	    -14.31134291	     -8.65021911	     33.57819180	     90.00000001	      0.00000000	      0.00000000	      0.37104313	     -8.76615581	    -19.91035924	     39.36606829	     90.00000001	      0.00000000	      0.00000000
